<svg id="Capa_1" enable-background="new 0 0 512 512" height="512" viewBox="0 0 512 512" width="512" xmlns="http://www.w3.org/2000/svg"><g><path d="m362.201 247.212-234.015.084-102.544.032c-13.368-55.391-45.952-180.458 61.248-227.748 82.496-36.397 167.1 3.15 167.1 3.15s185.957-36.133 108.211 224.482z" fill="#b16e3d"/><path d="m115.734 213.069-70.034 84.951-20.058-50.692c-13.368-55.391-45.952-180.458 61.248-227.748 82.496-36.397 167.1 3.15 167.1 3.15-155.543 0-165.003 134.527-138.256 190.339z" fill="#985e33"/><path d="m318.496 507.818h-253.062l6.173-30.066c5.078-24.756 24.367-43.571 48.301-48.638 4.203-.895 8.554-1.359 13-1.359h118.114c4.435 0 8.786.464 12.989 1.359 23.935 5.067 43.234 23.882 48.312 48.638z" fill="#90dfc3"/><path d="m156.88 427.755c-2.634 0-5.215.464-7.711 1.359-14.222 5.067-25.673 23.882-28.696 48.638l-3.666 30.066h-51.378l6.173-30.066c5.078-24.756 24.367-43.571 48.301-48.638 4.203-.895 8.554-1.359 13-1.359z" fill="#66b49d"/><path d="m226.972 369.288v58.467c0 19.331-15.675 35.006-35.006 35.006-19.342 0-35.017-15.675-35.017-35.006v-58.467z" fill="#ffcbbe"/><path d="m203.398 460.853c-3.582 1.233-7.427 1.907-11.43 1.907-19.342 0-35.017-15.675-35.017-35.006v-58.467h22.86v58.467c0 15.337 9.86 28.369 23.587 33.099z" fill="#eaac9d"/><path d="m45.705 320.604c-25.242 0-45.705-20.463-45.705-45.706 0-3.474.388-6.858 1.122-10.11 5.929-26.259 44.583-21.952 44.583 4.968h292.514c0-26.92 38.654-31.227 44.583-4.968.734 3.252 1.122 6.636 1.122 10.11 0 25.242-20.463 45.705-45.705 45.705" fill="#eaac9d"/><path d="m45.712 291.957c-2.428 0-4.816-1.141-6.32-3.273-.166-.23-7.385-10.063-15.009-6.986-3.958 1.598-8.46-.317-10.056-4.274-1.597-3.957.317-8.46 4.274-10.056 8.023-3.237 16.758-1.934 24.595 3.669 5.281 3.775 8.496 8.271 8.845 8.772 2.443 3.499 1.586 8.315-1.913 10.758-1.347.939-2.889 1.39-4.416 1.39z" fill="#df9380"/><path d="m156.948 369.288h70.023v53.863h-70.023z" fill="#eaac9d"/><path d="m338.214 223.467v74.553c0 58.867-47.722 106.6-106.6 106.6h-79.315c-58.867 0-106.6-47.732-106.6-106.6v-72.457c22.46-3.066 46.352-7.142 70.034-12.494 57.414-12.958 113.658-33.447 145.609-65.399.001.001 20.27 67.39 76.872 75.797z" fill="#ffcbbe"/><path d="m222.334 404.62h-70.034c-58.867 0-106.6-47.732-106.6-106.6v-72.457c22.46-3.066 46.352-7.142 70.034-12.494v84.951c0 58.868 47.722 106.6 106.6 106.6z" fill="#eaac9d"/><g><g><path d="m116.928 284.02c-7.606 0-13.794-10.275-13.794-22.905s6.188-22.905 13.794-22.905 13.794 10.275 13.794 22.905-6.188 22.905-13.794 22.905z" fill="#454045"/></g></g><path d="m191.965 337.088c-15.249 0-28.931-9.083-34.857-23.139-1.657-3.932.186-8.463 4.118-10.121 3.934-1.657 8.463.187 10.121 4.118 3.506 8.316 11.599 13.69 20.618 13.69s17.112-5.374 20.618-13.69c1.657-3.932 6.19-5.776 10.121-4.118 3.932 1.658 5.776 6.189 4.118 10.121-5.926 14.057-19.608 23.139-34.857 23.139z" fill="#dd636e"/><g fill="#e490b7"><ellipse cx="278.115" cy="305.597" rx="23.941" ry="14.558"/><ellipse cx="105.81" cy="305.597" rx="23.941" ry="14.558"/></g><path d="m206.205 289.124h-28.485c-4.267 0-7.726-3.459-7.726-7.726s3.459-7.726 7.726-7.726h28.485c4.267 0 7.726 3.459 7.726 7.726s-3.459 7.726-7.726 7.726z" fill="#eaac9d"/><path d="m504.51 402.256c-9.987 9.987-26.179 9.987-36.166 0l-79.516-79.516 36.166-36.166 79.516 79.516c9.987 9.987 9.987 26.179 0 36.166z" fill="#b16e3d"/><path d="m509.917 394.278c-1.244 2.898-3.047 5.609-5.408 7.971-9.989 9.989-26.176 9.996-36.165.007l-79.519-79.519 13.379-13.379 79.519 79.519c7.627 7.628 18.86 9.431 28.194 5.401z" fill="#985e33"/><circle cx="335.184" cy="232.931" fill="#f4dd45" r="118.59"/><path d="m342.546 351.297c-2.434.158-4.888.232-7.364.232-65.494 0-118.588-53.094-118.588-118.599 0-65.493 53.094-118.588 118.588-118.588 2.476 0 4.93.074 7.364.231-62.07 3.793-111.235 55.339-111.235 118.356 0 63.03 49.165 114.576 111.235 118.368z" fill="#eab14d"/><circle cx="335.184" cy="232.931" fill="#d0e2e7" r="86.987"/><path d="m422.171 232.931c0 48.048-38.946 86.995-86.984 86.995-2.96 0-5.878-.148-8.754-.443 43.929-4.382 78.219-41.464 78.219-86.552 0-45.078-34.29-82.16-78.219-86.542 2.876-.295 5.794-.442 8.754-.442 48.038 0 86.984 38.946 86.984 86.984z" fill="#f1f4f6"/><path d="m361.234 315.954c-8.228 2.581-16.982 3.972-26.052 3.972-48.038 0-86.984-38.947-86.984-86.995 0-48.038 38.946-86.984 86.984-86.984 16.497 0 31.93 4.593 45.078 12.578-.001 0 9.628 89.965-19.026 157.429z" fill="#eaac9d"/><ellipse cx="314.19" cy="221.958" fill="#544f57" rx="23.498" ry="33.741"/><path d="m322.159 253.709c-2.486 1.296-5.172 1.991-7.964 1.991-12.979 0-23.503-15.107-23.503-33.743s10.524-33.742 23.503-33.742c2.792 0 5.478.695 7.964 1.991-9.049 4.688-15.528 17.14-15.528 31.751 0 14.613 6.479 27.064 15.528 31.752z" fill="#454045"/><path d="m335.184 327.644c-52.225 0-94.713-42.488-94.713-94.713s42.488-94.713 94.713-94.713 94.713 42.488 94.713 94.713-42.488 94.713-94.713 94.713zm0-173.974c-43.704 0-79.26 35.556-79.26 79.26s35.556 79.26 79.26 79.26 79.26-35.556 79.26-79.26-35.555-79.26-79.26-79.26z" fill="#eab14d"/></g></svg>